<svg id='Handle_With_Care_24' width='24' height='24' viewBox='0 0 24 24' xmlns='http://www.w3.org/2000/svg' xmlns:xlink='http://www.w3.org/1999/xlink'><rect width='24' height='24' stroke='none' fill='#000000' opacity='0'/>


<g transform="matrix(0.32 0 0 0.32 12 12)" >
<path style="stroke: none; stroke-width: 1; stroke-dasharray: none; stroke-linecap: butt; stroke-dashoffset: 0; stroke-linejoin: miter; stroke-miterlimit: 4; fill: rgb(0,0,0); fill-rule: nonzero; opacity: 1;" transform=" translate(-40, -39.94)" d="M 40 8.859375 L 25 17.164063 L 25 31.496094 L 40 41.8125 L 55 31.496094 L 55 17.164063 Z M 40 11.140625 L 52.613281 18.128906 L 52.898438 18.800781 L 53 18.828125 L 53 30.441406 L 40.960938 38.722656 C 40.839844 38.296875 40.445313 38 40 38 C 39.554688 38 39.160156 38.296875 39.039063 38.722656 L 27 30.441406 L 27 18.34375 Z M 29.09375 19.042969 L 28.484375 19.695313 L 28.640625 20.578125 L 28.902344 20.816406 L 28.984375 20.875 L 29.875 20.96875 L 30.484375 20.3125 L 30.328125 19.433594 L 30.070313 19.191406 L 29.984375 19.140625 Z M 49.972656 19.238281 L 49.644531 19.375 L 49.5625 19.429688 L 49.109375 20.203125 L 49.453125 21.027344 L 50.324219 21.246094 L 50.648438 21.109375 L 50.734375 21.054688 L 51.1875 20.28125 L 50.84375 19.457031 Z M 32.539063 21.265625 L 31.925781 21.921875 L 32.089844 22.800781 L 32.34375 23.042969 L 32.425781 23.097656 L 33.320313 23.195313 L 33.929688 22.539063 L 33.769531 21.65625 L 33.515625 21.417969 L 33.429688 21.363281 Z M 46.53125 21.464844 L 46.203125 21.597656 L 46.121094 21.65625 L 45.664063 22.425781 L 46.011719 23.25 L 46.878906 23.46875 L 47.203125 23.332031 L 47.289063 23.28125 L 47.746094 22.507813 L 47.398438 21.683594 Z M 13 23 C 10.800781 23 9 24.800781 9 27 L 9 47.578125 C 9 48.726563 9.394531 49.839844 10.121094 50.734375 L 22 65.355469 L 22 70 C 21.996094 70.359375 22.183594 70.695313 22.496094 70.878906 C 22.808594 71.058594 23.191406 71.058594 23.503906 70.878906 C 23.816406 70.695313 24.003906 70.359375 24 70 L 24 64.644531 L 11.671875 49.46875 C 11.238281 48.9375 11 48.269531 11 47.578125 L 11 27 C 11 25.882813 11.882813 25 13 25 C 14.117188 25 15 25.882813 15 27 L 15 44.414063 L 18.292969 47.707031 C 18.542969 47.96875 18.917969 48.074219 19.265625 47.980469 C 19.617188 47.890625 19.890625 47.617188 19.980469 47.265625 C 20.074219 46.917969 19.96875 46.542969 19.707031 46.292969 L 19.59375 46.179688 C 19.574219 46.160156 19.554688 46.140625 19.535156 46.121094 C 18.8125 45.398438 18.8125 44.257813 19.535156 43.535156 C 20.257813 42.8125 21.398438 42.8125 22.121094 43.535156 L 31.363281 52.777344 C 33.050781 54.464844 34 56.753906 34 59.140625 L 34 70 C 33.996094 70.359375 34.183594 70.695313 34.496094 70.878906 C 34.808594 71.058594 35.191406 71.058594 35.503906 70.878906 C 35.816406 70.695313 36.003906 70.359375 36 70 L 36 59.140625 C 36 56.226563 34.839844 53.425781 32.777344 51.363281 L 23.535156 42.121094 C 22.792969 41.378906 21.808594 41.003906 20.828125 41.003906 C 19.847656 41.003906 18.863281 41.378906 18.121094 42.121094 L 17 43.242188 L 17 27 C 17 24.800781 15.199219 23 13 23 Z M 67 23 C 64.800781 23 63 24.800781 63 27 L 63 43.242188 L 61.878906 42.121094 C 61.136719 41.378906 60.152344 41.003906 59.171875 41.003906 C 58.191406 41.003906 57.207031 41.378906 56.464844 42.121094 L 47.222656 51.363281 C 45.160156 53.425781 44 56.226563 44 59.140625 L 44 70 C 43.996094 70.359375 44.183594 70.695313 44.496094 70.878906 C 44.808594 71.058594 45.191406 71.058594 45.503906 70.878906 C 45.816406 70.695313 46.003906 70.359375 46 70 L 46 59.140625 C 46 56.753906 46.949219 54.464844 48.636719 52.777344 L 57.878906 43.535156 C 58.601563 42.8125 59.742188 42.8125 60.464844 43.535156 C 61.1875 44.257813 61.1875 45.398438 60.464844 46.121094 L 60.292969 46.292969 C 60.03125 46.542969 59.925781 46.917969 60.019531 47.265625 C 60.109375 47.617188 60.382813 47.890625 60.734375 47.980469 C 61.082031 48.074219 61.457031 47.96875 61.707031 47.707031 L 61.820313 47.59375 C 61.839844 47.574219 61.859375 47.554688 61.878906 47.535156 L 65 44.414063 L 65 27 C 65 25.882813 65.882813 25 67 25 C 68.117188 25 69 25.882813 69 27 L 69 47.578125 C 69 48.269531 68.761719 48.9375 68.328125 49.46875 L 56 64.644531 L 56 70 C 55.996094 70.359375 56.183594 70.695313 56.496094 70.878906 C 56.808594 71.058594 57.191406 71.058594 57.503906 70.878906 C 57.816406 70.695313 58.003906 70.359375 58 70 L 58 65.355469 L 69.878906 50.734375 C 70.605469 49.839844 71 48.726563 71 47.578125 L 71 27 C 71 24.800781 69.199219 23 67 23 Z M 35.984375 23.488281 L 35.371094 24.144531 L 35.53125 25.027344 L 35.789063 25.265625 L 35.875 25.324219 L 36.765625 25.421875 L 37.375 24.765625 L 37.214844 23.882813 L 36.957031 23.640625 L 36.875 23.589844 Z M 43.082031 23.6875 L 42.761719 23.828125 L 42.675781 23.878906 L 42.21875 24.652344 L 42.566406 25.480469 L 43.4375 25.695313 L 43.761719 25.558594 L 43.84375 25.503906 L 44.300781 24.734375 L 43.953125 23.90625 Z M 39.425781 25.71875 L 38.8125 26.371094 L 38.972656 27.25 L 39.234375 27.496094 L 39.316406 27.546875 L 40.207031 27.644531 L 40.816406 26.988281 L 40.65625 26.109375 L 40.402344 25.867188 L 40.316406 25.8125 Z M 40 30 C 39.449219 30 39 30.449219 39 31 C 39 31.550781 39.449219 32 40 32 C 40.550781 32 41 31.550781 41 31 C 41 30.449219 40.550781 30 40 30 Z M 40 34 C 39.449219 34 39 34.449219 39 35 C 39 35.550781 39.449219 36 40 36 C 40.550781 36 41 35.550781 41 35 C 41 34.449219 40.550781 34 40 34 Z M 21 48 C 20.449219 48 20 48.449219 20 49 C 20 49.550781 20.449219 50 21 50 C 21.550781 50 22 49.550781 22 49 C 22 48.449219 21.550781 48 21 48 Z M 59 48 C 58.449219 48 58 48.449219 58 49 C 58 49.550781 58.449219 50 59 50 C 59.550781 50 60 49.550781 60 49 C 60 48.449219 59.550781 48 59 48 Z M 23 50 C 22.449219 50 22 50.449219 22 51 C 22 51.550781 22.449219 52 23 52 C 23.550781 52 24 51.550781 24 51 C 24 50.449219 23.550781 50 23 50 Z M 57 50 C 56.449219 50 56 50.449219 56 51 C 56 51.550781 56.449219 52 57 52 C 57.550781 52 58 51.550781 58 51 C 58 50.449219 57.550781 50 57 50 Z M 25 52 C 24.449219 52 24 52.449219 24 53 C 24 53.550781 24.449219 54 25 54 C 25.550781 54 26 53.550781 26 53 C 26 52.449219 25.550781 52 25 52 Z M 55 52 C 54.449219 52 54 52.449219 54 53 C 54 53.550781 54.449219 54 55 54 C 55.550781 54 56 53.550781 56 53 C 56 52.449219 55.550781 52 55 52 Z" stroke-linecap="round" />
</g>
</svg>