<svg id='Hospital_32' width='32' height='32' viewBox='0 0 32 32' xmlns='http://www.w3.org/2000/svg' xmlns:xlink='http://www.w3.org/1999/xlink'><rect width='32' height='32' stroke='none' fill='#000000' opacity='0'/>


<g transform="matrix(0.45 0 0 0.45 16 16)" >
<path style="stroke: none; stroke-width: 1; stroke-dasharray: none; stroke-linecap: butt; stroke-dashoffset: 0; stroke-linejoin: miter; stroke-miterlimit: 4; fill: rgb(0,0,0); fill-rule: nonzero; opacity: 1;" transform=" translate(-31, -35)" d="M 23 8 C 21.347656 8 20 9.347656 20 11 L 20 16 L 16 16 L 16 14.058594 C 16 13.503906 15.554688 13.058594 15 13.058594 C 14.445313 13.058594 14 13.503906 14 14.058594 L 14 16 L 12 16 L 12 9.054688 C 12 8.503906 11.554688 8.054688 11 8.054688 C 10.445313 8.054688 10 8.503906 10 9.054688 L 10 16 L 9.535156 16 C 8.863281 16 8.242188 16.332031 7.871094 16.890625 L 4.425781 22.058594 C 3.046875 22.328125 2 23.542969 2 25 C 2 26.300781 2.839844 27.402344 4 27.816406 L 4 60 L 1 60 C 0.445313 60 0 60.449219 0 61 C 0 61.550781 0.445313 62 1 62 L 61 62 C 61.554688 62 62 61.550781 62 61 C 62 60.449219 61.554688 60 61 60 L 58 60 L 58 27.816406 C 59.160156 27.402344 60 26.300781 60 25 C 60 23.542969 58.953125 22.328125 57.574219 22.058594 L 54.128906 16.890625 C 53.757813 16.332031 53.136719 16 52.464844 16 L 42 16 L 42 11 C 42 9.347656 40.652344 8 39 8 Z M 23 10 L 39 10 C 39.550781 10 40 10.449219 40 11 L 40 27 C 40 27.550781 39.550781 28 39 28 L 23 28 C 22.449219 28 22 27.550781 22 27 L 22 11 C 22 10.449219 22.449219 10 23 10 Z M 30 12 C 28.898438 12 28 12.898438 28 14 L 28 16 L 26 16 C 24.898438 16 24 16.898438 24 18 L 24 20 C 24 21.101563 24.898438 22 26 22 L 28 22 L 28 24 C 28 25.101563 28.898438 26 30 26 L 32 26 C 33.101563 26 34 25.101563 34 24 L 34 22 L 36 22 C 37.101563 22 38 21.101563 38 20 L 38 18 C 38 16.898438 37.101563 16 36 16 L 34 16 L 34 14 C 34 12.898438 33.101563 12 32 12 Z M 30 14 L 32 14 L 32 16 C 32 17.101563 32.898438 18 34 18 L 36 18 L 36 20 L 34 20 C 32.898438 20 32 20.898438 32 22 L 32 24 L 30 24 L 30 22 C 30 20.898438 29.101563 20 28 20 L 26 20 L 26 18 L 28 18 C 29.101563 18 30 17.101563 30 16 Z M 9.535156 18 L 10 18 L 10 19.058594 C 10 19.609375 10.445313 20.058594 11 20.058594 C 11.554688 20.058594 12 19.609375 12 19.058594 L 12 18 L 14 18 L 14 19.058594 C 14 19.609375 14.445313 20.058594 15 20.058594 C 15.554688 20.058594 16 19.609375 16 19.058594 L 16 18 L 20 18 L 20 22 L 6.867188 22 Z M 42 18 L 52.464844 18 L 55.132813 22 L 42 22 Z M 5 24 L 20 24 L 20 26 L 5 26 C 4.449219 26 4 25.550781 4 25 C 4 24.449219 4.449219 24 5 24 Z M 42 24 L 57 24 C 57.550781 24 58 24.449219 58 25 C 58 25.550781 57.550781 26 57 26 L 42 26 Z M 6 28 L 20.183594 28 C 20.597656 29.160156 21.699219 30 23 30 L 39 30 C 40.300781 30 41.402344 29.160156 41.816406 28 L 56 28 L 56 60 L 38 60 L 38 49.949219 C 38 48.847656 37.101563 47.949219 36 47.949219 L 26 47.949219 C 24.898438 47.949219 24 48.847656 24 49.949219 L 24 60 L 6 60 L 6 46 L 46 46 C 46.554688 46 47 45.550781 47 45 C 47 44.449219 46.554688 44 46 44 L 6 44 Z M 11 34 C 10.445313 34 10 34.449219 10 35 C 10 35.550781 10.445313 36 11 36 L 13 36 C 13.554688 36 14 35.550781 14 35 C 14 34.449219 13.554688 34 13 34 Z M 17 34 C 16.445313 34 16 34.449219 16 35 C 16 35.550781 16.445313 36 17 36 L 19 36 C 19.554688 36 20 35.550781 20 35 C 20 34.449219 19.554688 34 19 34 Z M 27 34 C 26.445313 34 26 34.449219 26 35 C 26 35.550781 26.445313 36 27 36 L 29 36 C 29.554688 36 30 35.550781 30 35 C 30 34.449219 29.554688 34 29 34 Z M 33 34 C 32.445313 34 32 34.449219 32 35 C 32 35.550781 32.445313 36 33 36 L 35 36 C 35.554688 36 36 35.550781 36 35 C 36 34.449219 35.554688 34 35 34 Z M 43 34 C 42.445313 34 42 34.449219 42 35 C 42 35.550781 42.445313 36 43 36 L 45 36 C 45.554688 36 46 35.550781 46 35 C 46 34.449219 45.554688 34 45 34 Z M 49 34 C 48.445313 34 48 34.449219 48 35 C 48 35.550781 48.445313 36 49 36 L 51 36 C 51.554688 36 52 35.550781 52 35 C 52 34.449219 51.554688 34 51 34 Z M 11 38 C 10.445313 38 10 38.449219 10 39 C 10 39.550781 10.445313 40 11 40 L 13 40 C 13.554688 40 14 39.550781 14 39 C 14 38.449219 13.554688 38 13 38 Z M 17 38 C 16.445313 38 16 38.449219 16 39 C 16 39.550781 16.445313 40 17 40 L 19 40 C 19.554688 40 20 39.550781 20 39 C 20 38.449219 19.554688 38 19 38 Z M 27 38 C 26.445313 38 26 38.449219 26 39 C 26 39.550781 26.445313 40 27 40 L 29 40 C 29.554688 40 30 39.550781 30 39 C 30 38.449219 29.554688 38 29 38 Z M 33 38 C 32.445313 38 32 38.449219 32 39 C 32 39.550781 32.445313 40 33 40 L 35 40 C 35.554688 40 36 39.550781 36 39 C 36 38.449219 35.554688 38 35 38 Z M 43 38 C 42.445313 38 42 38.449219 42 39 C 42 39.550781 42.445313 40 43 40 L 45 40 C 45.554688 40 46 39.550781 46 39 C 46 38.449219 45.554688 38 45 38 Z M 49 38 C 48.445313 38 48 38.449219 48 39 C 48 39.550781 48.445313 40 49 40 L 51 40 C 51.554688 40 52 39.550781 52 39 C 52 38.449219 51.554688 38 51 38 Z M 49 44 C 48.445313 44 48 44.449219 48 45 C 48 45.550781 48.445313 46 49 46 L 53 46 C 53.554688 46 54 45.550781 54 45 C 54 44.449219 53.554688 44 53 44 Z M 26 49.949219 L 30 49.949219 L 30 59.949219 L 26 59.949219 Z M 32 49.949219 L 36 49.949219 L 36 59.949219 L 32 59.949219 Z M 11 50 C 10.445313 50 10 50.449219 10 51 C 10 51.550781 10.445313 52 11 52 L 13 52 C 13.554688 52 14 51.550781 14 51 C 14 50.449219 13.554688 50 13 50 Z M 17 50 C 16.445313 50 16 50.449219 16 51 C 16 51.550781 16.445313 52 17 52 L 19 52 C 19.554688 52 20 51.550781 20 51 C 20 50.449219 19.554688 50 19 50 Z M 43 50 C 42.445313 50 42 50.449219 42 51 C 42 51.550781 42.445313 52 43 52 L 45 52 C 45.554688 52 46 51.550781 46 51 C 46 50.449219 45.554688 50 45 50 Z M 49 50 C 48.445313 50 48 50.449219 48 51 C 48 51.550781 48.445313 52 49 52 L 51 52 C 51.554688 52 52 51.550781 52 51 C 52 50.449219 51.554688 50 51 50 Z M 11 54 C 10.445313 54 10 54.449219 10 55 C 10 55.550781 10.445313 56 11 56 L 13 56 C 13.554688 56 14 55.550781 14 55 C 14 54.449219 13.554688 54 13 54 Z M 17 54 C 16.445313 54 16 54.449219 16 55 C 16 55.550781 16.445313 56 17 56 L 19 56 C 19.554688 56 20 55.550781 20 55 C 20 54.449219 19.554688 54 19 54 Z M 43 54 C 42.445313 54 42 54.449219 42 55 C 42 55.550781 42.445313 56 43 56 L 45 56 C 45.554688 56 46 55.550781 46 55 C 46 54.449219 45.554688 54 45 54 Z M 49 54 C 48.445313 54 48 54.449219 48 55 C 48 55.550781 48.445313 56 49 56 L 51 56 C 51.554688 56 52 55.550781 52 55 C 52 54.449219 51.554688 54 51 54 Z" stroke-linecap="round" />
</g>
</svg>