<svg id='Professions_Woman_Nurse_2_24' width='24' height='24' viewBox='0 0 24 24' xmlns='http://www.w3.org/2000/svg' xmlns:xlink='http://www.w3.org/1999/xlink'><rect width='24' height='24' stroke='none' fill='#000000' opacity='0'/>


<g transform="matrix(0.83 0 0 0.83 12 12)" >
<g style="" >
<g transform="matrix(1 0 0 1 0.14 8.25)" >
<path style="stroke: rgb(0,0,0); stroke-width: 1.5; stroke-dasharray: none; stroke-linecap: round; stroke-dashoffset: 0; stroke-linejoin: round; stroke-miterlimit: 4; fill: none; fill-rule: nonzero; opacity: 1;" transform=" translate(-12.14, -20.25)" d="M 21.614 23.25 C 19.880731890589466 19.58641160922386 16.19091231537635 17.250158819404014 12.138 17.250158819404014 C 8.085087684623648 17.250158819404014 4.395268109410527 19.58641160922386 2.6619999999999955 23.25" stroke-linecap="round" />
</g>
<g transform="matrix(1 0 0 1 0.14 8.71)" >
<path style="stroke: rgb(0,0,0); stroke-width: 1.5; stroke-dasharray: none; stroke-linecap: round; stroke-dashoffset: 0; stroke-linejoin: round; stroke-miterlimit: 4; fill: none; fill-rule: nonzero; opacity: 1;" transform=" translate(-12.14, -20.71)" d="M 7.854 18.164 L 12.138 23.25 L 16.422 18.164" stroke-linecap="round" />
</g>
<g transform="matrix(1 0 0 1 8.11 -0.77)" >
<path style="stroke: rgb(0,0,0); stroke-width: 1.5; stroke-dasharray: none; stroke-linecap: round; stroke-dashoffset: 0; stroke-linejoin: round; stroke-miterlimit: 4; fill: none; fill-rule: nonzero; opacity: 1;" transform=" translate(-20.11, -11.23)" d="M 17.974 19.026 C 19.140962035920598 18.829486917770218 20.279668027482867 18.491669687598694 21.365000000000006 18.019999999999996 C 22.112053252512794 17.68426119180996 22.451691144260046 16.811351747882888 22.128000000000004 16.059 L 20.752000000000002 12.848 C 20.511969586121655 12.288062284262663 20.388134461610292 11.685216568234837 20.388 11.076 L 20.388 9 C 20.391054321142434 6.935168884082565 19.616705725720337 4.944853799030377 18.219 3.424999999999999" stroke-linecap="round" />
</g>
<g transform="matrix(1 0 0 1 -7.84 -0.77)" >
<path style="stroke: rgb(0,0,0); stroke-width: 1.5; stroke-dasharray: none; stroke-linecap: round; stroke-dashoffset: 0; stroke-linejoin: round; stroke-miterlimit: 4; fill: none; fill-rule: nonzero; opacity: 1;" transform=" translate(-4.16, -11.23)" d="M 6.057 3.425 C 4.659294274279667 4.944853799030379 3.8849456788575663 6.935168884082569 3.887999999999998 9.000000000000004 L 3.888 11.076 C 3.8878655383897076 11.68521656823484 3.7640304138783494 12.288062284262665 3.524000000000001 12.848 L 2.148 16.059 C 1.8243088557399587 16.811351747882888 2.1639467474872083 17.68426119180996 2.910999999999999 18.02 C 3.995694632411171 18.49151481321181 5.133719882405064 18.82932933120941 6.29999999999999 19.026000000000003" stroke-linecap="round" />
</g>
<g transform="matrix(1 0 0 1 0.14 -0.75)" >
<path style="stroke: rgb(0,0,0); stroke-width: 1.5; stroke-dasharray: none; stroke-linecap: round; stroke-dashoffset: 0; stroke-linejoin: round; stroke-miterlimit: 4; fill: none; fill-rule: nonzero; opacity: 1;" transform=" translate(-12.14, -11.25)" d="M 12.356 6.75 L 11.92 6.75 C 11.25598282967047 8.974874668574408 9.209849696349298 10.499715537007317 6.888 10.5 C 6.88800006143551 13.3994948931702 9.2385051068298 15.749999888761169 12.137999999999998 15.749999888761169 C 15.037494893170198 15.749999888761169 17.38799993856449 13.3994948931702 17.387999999999998 10.5 C 15.066150303650701 10.499715537007317 13.02001717032953 8.974874668574408 12.356 6.749999999999999 Z" stroke-linecap="round" />
</g>
<g transform="matrix(1 0 0 1 0.14 -8.25)" >
<path style="stroke: rgb(0,0,0); stroke-width: 1.5; stroke-dasharray: none; stroke-linecap: round; stroke-dashoffset: 0; stroke-linejoin: round; stroke-miterlimit: 4; fill: none; fill-rule: nonzero; opacity: 1;" transform=" translate(-12.14, -3.75)" d="M 17.388 6.75 L 6.888 6.75 L 5.854 2.613 C 5.742272248993922 2.1650381610057865 5.843056837575673 1.6905819265946846 6.127233508455834 1.3267186016120447 C 6.411410179335996 0.9628552766294047 6.847315168892685 0.7501275357333506 7.309 0.75 L 16.967 0.75 C 17.428684831107315 0.7501275357333512 17.864589820664 0.9628552766294054 18.148766491544162 1.3267186016120454 C 18.432943162424323 1.6905819265946853 18.533727751006076 2.1650381610057865 18.421999999999997 2.6129999999999995 Z" stroke-linecap="round" />
</g>
</g>
</g>
</svg>