<svg id='Contact_Us_24' width='24' height='24' viewBox='0 0 24 24' xmlns='http://www.w3.org/2000/svg' xmlns:xlink='http://www.w3.org/1999/xlink'><rect width='24' height='24' stroke='none' fill='#000000' opacity='0'/>


<g transform="matrix(0.91 0 0 0.91 12 12)" >
<path style="stroke: none; stroke-width: 1; stroke-dasharray: none; stroke-linecap: butt; stroke-dashoffset: 0; stroke-linejoin: miter; stroke-miterlimit: 4; fill: rgb(0,0,0); fill-rule: nonzero; opacity: 1;" transform=" translate(-12, -12)" d="M 3 3 C 1.897 3 1 3.897 1 5 L 1 21 L 11 21 L 11 19 L 3 19 L 3 5 L 13 5 L 13 12 C 13 10.37 13.792 8.9354375 15 8.0234375 L 15 5 C 15 3.897 14.103 3 13 3 L 3 3 z M 5 7 L 5 9 L 7 9 L 7 7 L 5 7 z M 9 7 L 9 9 L 11 9 L 11 7 L 9 7 z M 18 9 C 16.318 9 15 10.317 15 12 C 15 13.683 16.318 15 18 15 C 19.682 15 21 13.683 21 12 C 21 10.317 19.682 9 18 9 z M 5 11 L 5 13 L 7 13 L 7 11 L 5 11 z M 9 11 L 9 13 L 11 13 L 11 11 L 9 11 z M 18 11 C 18.58 11 19 11.421 19 12 C 19 12.579 18.58 13 18 13 C 17.42 13 17 12.579 17 12 C 17 11.421 17.42 11 18 11 z M 5 15 L 5 17 L 7 17 L 7 15 L 5 15 z M 9 15 L 9 17 L 11 17 L 11 15 L 9 15 z M 18 16 C 15.149 16 13 17.455766 13 19.384766 L 13 21 L 23 21 L 23 19.384766 C 23 17.455766 20.851 16 18 16 z M 18 18 C 19.47 18 20.489516 18.504 20.853516 19 L 15.146484 19 C 15.509484 18.504 16.53 18 18 18 z" stroke-linecap="round" />
</g>
</svg>